<svg id="visual" viewBox="0 0 1300 200" width="1300" height="200" xmlns="http://www.w3.org/2000/svg" xmlns:xlink="http://www.w3.org/1999/xlink" version="1.1"><rect x="0" y="0" width="1300" height="200" fill="#fff"></rect><path d="M0 69L16.7 71.7C33.3 74.3 66.7 79.7 100 77.8C133.3 76 166.7 67 200 68.3C233.3 69.7 266.7 81.3 300 85.2C333.3 89 366.7 85 400 86.2C433.3 87.3 466.7 93.7 500 91.8C533.3 90 566.7 80 600 80.7C633.3 81.3 666.7 92.7 700 94.7C733.3 96.7 766.7 89.3 800 80.7C833.3 72 866.7 62 900 57.7C933.3 53.3 966.7 54.7 1000 56C1033.3 57.3 1066.7 58.7 1100 64.2C1133.3 69.7 1166.7 79.3 1200 82.8C1233.3 86.3 1266.7 83.7 1283.3 82.3L1300 81L1300 201L1283.3 201C1266.7 201 1233.3 201 1200 201C1166.7 201 1133.3 201 1100 201C1066.7 201 1033.3 201 1000 201C966.7 201 933.3 201 900 201C866.7 201 833.3 201 800 201C766.7 201 733.3 201 700 201C666.7 201 633.3 201 600 201C566.7 201 533.3 201 500 201C466.7 201 433.3 201 400 201C366.7 201 333.3 201 300 201C266.7 201 233.3 201 200 201C166.7 201 133.3 201 100 201C66.7 201 33.3 201 16.7 201L0 201Z" fill="#d09a22"></path><path d="M0 113L16.7 112.2C33.3 111.3 66.7 109.7 100 111C133.3 112.3 166.7 116.7 200 116.8C233.3 117 266.7 113 300 108C333.3 103 366.7 97 400 99.5C433.3 102 466.7 113 500 111.2C533.3 109.3 566.7 94.7 600 87.5C633.3 80.3 666.7 80.7 700 82.7C733.3 84.7 766.7 88.3 800 89.2C833.3 90 866.7 88 900 88.5C933.3 89 966.7 92 1000 95.5C1033.3 99 1066.7 103 1100 105.3C1133.3 107.7 1166.7 108.3 1200 104.3C1233.3 100.3 1266.7 91.7 1283.3 87.3L1300 83L1300 201L1283.3 201C1266.7 201 1233.3 201 1200 201C1166.7 201 1133.3 201 1100 201C1066.7 201 1033.3 201 1000 201C966.7 201 933.3 201 900 201C866.7 201 833.3 201 800 201C766.7 201 733.3 201 700 201C666.7 201 633.3 201 600 201C566.7 201 533.3 201 500 201C466.7 201 433.3 201 400 201C366.7 201 333.3 201 300 201C266.7 201 233.3 201 200 201C166.7 201 133.3 201 100 201C66.7 201 33.3 201 16.7 201L0 201Z" fill="#dba324"></path><path d="M0 107L16.7 106.7C33.3 106.3 66.7 105.7 100 107.8C133.3 110 166.7 115 200 117C233.3 119 266.7 118 300 121C333.3 124 366.7 131 400 131.2C433.3 131.3 466.7 124.7 500 122C533.3 119.3 566.7 120.7 600 120.3C633.3 120 666.7 118 700 116.2C733.3 114.3 766.7 112.7 800 113C833.3 113.3 866.7 115.7 900 115C933.3 114.3 966.7 110.7 1000 113.3C1033.3 116 1066.7 125 1100 125C1133.3 125 1166.7 116 1200 117.5C1233.3 119 1266.7 131 1283.3 137L1300 143L1300 201L1283.3 201C1266.7 201 1233.3 201 1200 201C1166.7 201 1133.3 201 1100 201C1066.7 201 1033.3 201 1000 201C966.7 201 933.3 201 900 201C866.7 201 833.3 201 800 201C766.7 201 733.3 201 700 201C666.7 201 633.3 201 600 201C566.7 201 533.3 201 500 201C466.7 201 433.3 201 400 201C366.7 201 333.3 201 300 201C266.7 201 233.3 201 200 201C166.7 201 133.3 201 100 201C66.7 201 33.3 201 16.7 201L0 201Z" fill="#e7ad27"></path><path d="M0 145L16.7 145C33.3 145 66.7 145 100 146.3C133.3 147.7 166.7 150.3 200 152.5C233.3 154.7 266.7 156.3 300 154.8C333.3 153.3 366.7 148.7 400 147C433.3 145.3 466.7 146.7 500 144C533.3 141.3 566.7 134.7 600 132.5C633.3 130.3 666.7 132.7 700 135C733.3 137.3 766.7 139.7 800 140.2C833.3 140.7 866.7 139.3 900 138.3C933.3 137.3 966.7 136.7 1000 140.3C1033.3 144 1066.7 152 1100 151.5C1133.3 151 1166.7 142 1200 140.2C1233.3 138.3 1266.7 143.7 1283.3 146.3L1300 149L1300 201L1283.3 201C1266.7 201 1233.3 201 1200 201C1166.7 201 1133.3 201 1100 201C1066.7 201 1033.3 201 1000 201C966.7 201 933.3 201 900 201C866.7 201 833.3 201 800 201C766.7 201 733.3 201 700 201C666.7 201 633.3 201 600 201C566.7 201 533.3 201 500 201C466.7 201 433.3 201 400 201C366.7 201 333.3 201 300 201C266.7 201 233.3 201 200 201C166.7 201 133.3 201 100 201C66.7 201 33.3 201 16.7 201L0 201Z" fill="#f3b729"></path><path d="M0 179L16.7 176.2C33.3 173.3 66.7 167.7 100 167.3C133.3 167 166.7 172 200 173.8C233.3 175.7 266.7 174.3 300 174.2C333.3 174 366.7 175 400 171.8C433.3 168.7 466.7 161.3 500 159.3C533.3 157.3 566.7 160.7 600 162C633.3 163.3 666.7 162.7 700 163.3C733.3 164 766.7 166 800 166.7C833.3 167.3 866.7 166.7 900 168.2C933.3 169.7 966.7 173.3 1000 172.8C1033.3 172.3 1066.7 167.7 1100 166.2C1133.3 164.7 1166.7 166.3 1200 165.8C1233.3 165.3 1266.7 162.7 1283.3 161.3L1300 160L1300 201L1283.3 201C1266.7 201 1233.3 201 1200 201C1166.7 201 1133.3 201 1100 201C1066.7 201 1033.3 201 1000 201C966.7 201 933.3 201 900 201C866.7 201 833.3 201 800 201C766.7 201 733.3 201 700 201C666.7 201 633.3 201 600 201C566.7 201 533.3 201 500 201C466.7 201 433.3 201 400 201C366.7 201 333.3 201 300 201C266.7 201 233.3 201 200 201C166.7 201 133.3 201 100 201C66.7 201 33.3 201 16.7 201L0 201Z" fill="#ffc12c"></path></svg>