<svg id="visual" viewBox="0 0 1300 200" width="1300" height="200" xmlns="http://www.w3.org/2000/svg" xmlns:xlink="http://www.w3.org/1999/xlink" version="1.1"><rect x="0" y="0" width="1300" height="200" fill="#fff"></rect><path d="M0 108L16.7 108.3C33.3 108.7 66.7 109.3 100 107C133.3 104.7 166.7 99.3 200 104C233.3 108.7 266.7 123.3 300 125.2C333.3 127 366.7 116 400 113.5C433.3 111 466.7 117 500 114.8C533.3 112.7 566.7 102.3 600 97C633.3 91.7 666.7 91.3 700 92.3C733.3 93.3 766.7 95.7 800 104C833.3 112.3 866.7 126.7 900 131.2C933.3 135.7 966.7 130.3 1000 124.8C1033.3 119.3 1066.7 113.7 1100 110.7C1133.3 107.7 1166.7 107.3 1200 111.7C1233.3 116 1266.7 125 1283.3 129.5L1300 134L1300 0L1283.3 0C1266.7 0 1233.3 0 1200 0C1166.7 0 1133.3 0 1100 0C1066.7 0 1033.3 0 1000 0C966.7 0 933.3 0 900 0C866.7 0 833.3 0 800 0C766.7 0 733.3 0 700 0C666.7 0 633.3 0 600 0C566.7 0 533.3 0 500 0C466.7 0 433.3 0 400 0C366.7 0 333.3 0 300 0C266.7 0 233.3 0 200 0C166.7 0 133.3 0 100 0C66.7 0 33.3 0 16.7 0L0 0Z" fill="#d09a22"></path><path d="M0 86L16.7 89.5C33.3 93 66.7 100 100 101.8C133.3 103.7 166.7 100.3 200 98.7C233.3 97 266.7 97 300 98C333.3 99 366.7 101 400 97.2C433.3 93.3 466.7 83.7 500 82.8C533.3 82 566.7 90 600 90.5C633.3 91 666.7 84 700 81.2C733.3 78.3 766.7 79.7 800 80.3C833.3 81 866.7 81 900 79.3C933.3 77.7 966.7 74.3 1000 78.8C1033.3 83.3 1066.7 95.7 1100 102.8C1133.3 110 1166.7 112 1200 109.8C1233.3 107.7 1266.7 101.3 1283.3 98.2L1300 95L1300 0L1283.3 0C1266.7 0 1233.3 0 1200 0C1166.7 0 1133.3 0 1100 0C1066.7 0 1033.3 0 1000 0C966.7 0 933.3 0 900 0C866.7 0 833.3 0 800 0C766.7 0 733.3 0 700 0C666.7 0 633.3 0 600 0C566.7 0 533.3 0 500 0C466.7 0 433.3 0 400 0C366.7 0 333.3 0 300 0C266.7 0 233.3 0 200 0C166.7 0 133.3 0 100 0C66.7 0 33.3 0 16.7 0L0 0Z" fill="#dba324"></path><path d="M0 67L16.7 67.3C33.3 67.7 66.7 68.3 100 70.8C133.3 73.3 166.7 77.7 200 81.3C233.3 85 266.7 88 300 88.8C333.3 89.7 366.7 88.3 400 83.5C433.3 78.7 466.7 70.3 500 69.3C533.3 68.3 566.7 74.7 600 74.2C633.3 73.7 666.7 66.3 700 65.2C733.3 64 766.7 69 800 74.8C833.3 80.7 866.7 87.3 900 90.3C933.3 93.3 966.7 92.7 1000 87.8C1033.3 83 1066.7 74 1100 73.5C1133.3 73 1166.7 81 1200 84.8C1233.3 88.7 1266.7 88.3 1283.3 88.2L1300 88L1300 0L1283.3 0C1266.7 0 1233.3 0 1200 0C1166.7 0 1133.3 0 1100 0C1066.7 0 1033.3 0 1000 0C966.7 0 933.3 0 900 0C866.7 0 833.3 0 800 0C766.7 0 733.3 0 700 0C666.7 0 633.3 0 600 0C566.7 0 533.3 0 500 0C466.7 0 433.3 0 400 0C366.7 0 333.3 0 300 0C266.7 0 233.3 0 200 0C166.7 0 133.3 0 100 0C66.7 0 33.3 0 16.7 0L0 0Z" fill="#e7ad27"></path><path d="M0 48L16.7 47C33.3 46 66.7 44 100 45.2C133.3 46.3 166.7 50.7 200 54.3C233.3 58 266.7 61 300 62.2C333.3 63.3 366.7 62.7 400 63.3C433.3 64 466.7 66 500 62.8C533.3 59.7 566.7 51.3 600 47C633.3 42.7 666.7 42.3 700 46.3C733.3 50.3 766.7 58.7 800 58.2C833.3 57.7 866.7 48.3 900 45.5C933.3 42.7 966.7 46.3 1000 46.2C1033.3 46 1066.7 42 1100 41.8C1133.3 41.7 1166.7 45.3 1200 44.7C1233.3 44 1266.7 39 1283.3 36.5L1300 34L1300 0L1283.3 0C1266.7 0 1233.3 0 1200 0C1166.7 0 1133.3 0 1100 0C1066.7 0 1033.3 0 1000 0C966.7 0 933.3 0 900 0C866.7 0 833.3 0 800 0C766.7 0 733.3 0 700 0C666.7 0 633.3 0 600 0C566.7 0 533.3 0 500 0C466.7 0 433.3 0 400 0C366.7 0 333.3 0 300 0C266.7 0 233.3 0 200 0C166.7 0 133.3 0 100 0C66.7 0 33.3 0 16.7 0L0 0Z" fill="#f3b729"></path><path d="M0 38L16.7 36.3C33.3 34.7 66.7 31.3 100 29.8C133.3 28.3 166.7 28.7 200 29.7C233.3 30.7 266.7 32.3 300 34.8C333.3 37.3 366.7 40.7 400 37.8C433.3 35 466.7 26 500 22.8C533.3 19.7 566.7 22.3 600 26.3C633.3 30.3 666.7 35.7 700 35.2C733.3 34.7 766.7 28.3 800 27.8C833.3 27.3 866.7 32.7 900 32.3C933.3 32 966.7 26 1000 26.5C1033.3 27 1066.7 34 1100 36.8C1133.3 39.7 1166.7 38.3 1200 37.5C1233.3 36.7 1266.7 36.3 1283.3 36.2L1300 36L1300 0L1283.3 0C1266.7 0 1233.3 0 1200 0C1166.7 0 1133.3 0 1100 0C1066.7 0 1033.3 0 1000 0C966.7 0 933.3 0 900 0C866.7 0 833.3 0 800 0C766.7 0 733.3 0 700 0C666.7 0 633.3 0 600 0C566.7 0 533.3 0 500 0C466.7 0 433.3 0 400 0C366.7 0 333.3 0 300 0C266.7 0 233.3 0 200 0C166.7 0 133.3 0 100 0C66.7 0 33.3 0 16.7 0L0 0Z" fill="#ffc12c"></path></svg>