<svg width="1028" height="599" viewBox="0 0 1028 599" fill="none" xmlns="http://www.w3.org/2000/svg">
<g clip-path="url(#clip0_2_2)">
<path d="M330.004 590.007C491.273 590.007 622.007 459.273 622.007 298.004C622.007 136.734 491.273 6 330.004 6C168.734 6 38 136.734 38 298.004C38 459.273 168.734 590.007 330.004 590.007Z" fill="#F2F2F2"/>
<path d="M1028 517.997C1028 518.707 1027.94 519.416 1027.83 520.117C1020.69 563.877 793.37 598.997 514 598.997C234.63 598.997 7.31 563.877 0.169998 520.117C0.0583823 519.416 0.00154559 518.707 0 517.997C0 517.797 -3.35649e-06 517.587 0.0199966 517.387C0.0199966 517.277 0.0299988 517.177 0.0299988 517.067C0.0382587 517.028 0.0416196 516.988 0.0400009 516.947C0.0800009 516.497 0.140001 516.067 0.220001 515.627C3.48 497.737 43.57 481.297 108.96 468.127C162.44 457.357 232.85 448.767 313.89 443.367C375.39 439.267 443.01 436.997 514 436.997C571.12 436.997 626.06 438.467 677.38 441.167H677.4C688.14 441.737 698.72 442.361 709.14 443.037C780.47 447.657 843.77 454.727 894.77 463.577C926.14 469.027 952.87 475.157 973.96 481.797H973.97C1006.43 492.027 1025.57 503.497 1027.78 515.627C1027.86 516.067 1027.92 516.497 1027.96 516.947C1027.96 516.988 1027.96 517.028 1027.97 517.067C1027.97 517.177 1027.98 517.277 1027.98 517.387C1028 517.587 1028 517.797 1028 517.997Z" fill="#3F3D56"/>
<path opacity="0.1" d="M501 595.997C592.127 595.997 666 585.252 666 571.997C666 558.743 592.127 547.997 501 547.997C409.873 547.997 336 558.743 336 571.997C336 585.252 409.873 595.997 501 595.997Z" fill="black"/>
<path opacity="0.1" d="M973.96 481.797C968.19 483.447 961.69 484.977 954.56 486.377C925.2 492.157 885.14 495.707 841.03 495.707C791.75 495.707 747.58 491.277 717.65 484.267C692.81 478.447 677.77 470.877 677.77 462.567C677.77 455.267 689.41 448.507 709.14 443.037C780.47 447.657 843.77 454.727 894.77 463.577C926.14 469.027 952.87 475.157 973.96 481.797Z" fill="black"/>
<path opacity="0.1" d="M532 470.747C532 485.877 437.08 498.147 320 498.147C202.92 498.147 108 485.877 108 470.747C108.025 469.793 108.362 468.872 108.96 468.127C162.44 457.357 232.85 448.767 313.89 443.367C315.92 443.357 317.957 443.354 320 443.357C437.08 443.357 532 455.617 532 470.747Z" fill="black"/>
<path d="M160 273H119V471H160V273Z" fill="#8A8B8C"/>
<path d="M246 273H204V471H246V273Z" fill="#8A8B8C"/>
<path d="M119 273V315H246V273H119Z" fill="#8A8B8C"/>
<path d="M124 433V471H246V433H124Z" fill="#8A8B8C"/>
<path d="M415 429V470.685H549.584V429H415Z" fill="#6C63FF"/>
<path d="M415 356V397.685H549.584V356H415Z" fill="#6C63FF"/>
<path d="M415 277V318.685H549.584V277H415Z" fill="#6C63FF"/>
<path d="M415 277V387H454V277H415Z" fill="#6C63FF"/>
<path d="M508 362V461H550V362H508Z" fill="#6C63FF"/>
<path d="M263 429V471H398V429H263Z" fill="#6C63FF"/>
<path d="M263 356V398H398V356H263Z" fill="#6C63FF"/>
<path d="M263 277V318.685H397.584V277H263Z" fill="#6C63FF"/>
<path d="M263 277V387H302V277H263Z" fill="#6C63FF"/>
<path d="M356 362V461H398V362H356Z" fill="#6C63FF"/>
<path d="M815.062 260.029C843.561 260.029 867.819 269.975 887.836 289.868C897.263 299.222 904.691 310.394 909.668 322.707C919.585 347.896 919.619 375.902 909.763 401.116C904.862 413.286 897.455 424.289 888.024 433.41C878.326 443.07 866.829 450.735 854.182 455.971C841.791 461.142 828.496 463.801 815.068 463.793C801.793 463.833 788.645 461.204 776.407 456.06C751.476 445.447 731.622 425.594 721.007 400.664C710.788 375.802 710.82 347.907 721.096 323.07C726.302 310.563 733.939 299.215 743.565 289.684C762.971 269.918 786.803 260.033 815.062 260.029ZM815.431 278.406C792.144 278.406 772.555 286.533 756.663 302.785C748.827 310.659 742.561 319.951 738.197 330.166C733.934 340.176 731.737 350.943 731.737 361.822C731.737 372.701 733.934 383.468 738.197 393.478C746.985 413.889 763.312 430.12 783.774 438.787C793.829 442.946 804.607 445.078 815.488 445.063C826.369 445.047 837.14 442.885 847.184 438.698C857.515 434.393 866.931 428.157 874.925 420.324C890.813 404.8 898.755 385.331 898.753 361.919C898.812 350.943 896.71 340.063 892.567 329.899C888.429 319.808 882.308 310.651 874.565 302.97C858.181 286.595 838.47 278.407 815.431 278.406ZM814.155 344.997L800.505 352.094C799.404 349.476 797.533 347.256 795.14 345.726C793.36 344.617 791.321 343.99 789.225 343.908C780.132 343.908 775.583 349.912 775.579 361.919C775.579 367.376 776.73 371.741 779.033 375.014C781.338 378.291 784.736 379.929 789.225 379.93C795.169 379.93 799.355 377.019 801.782 371.197L814.333 377.565C811.771 382.428 807.921 386.494 803.204 389.318C798.488 392.142 793.086 393.615 787.588 393.576C778.492 393.576 771.153 390.786 765.572 385.206C759.994 379.628 757.205 371.867 757.205 361.922C757.205 352.218 760.025 344.516 765.664 338.817C771.303 333.118 778.429 330.267 787.044 330.265C799.662 330.259 808.698 335.169 814.155 344.997ZM872.919 344.997L859.455 352.094C858.353 349.476 856.481 347.255 854.087 345.726C852.248 344.599 850.148 343.973 847.993 343.908C838.896 343.908 834.347 349.912 834.343 361.919C834.343 367.376 835.496 371.741 837.801 375.014C840.103 378.291 843.5 379.929 847.993 379.93C853.931 379.93 858.113 377.019 860.54 371.197L873.276 377.565C870.619 382.403 866.729 386.452 862.002 389.301C857.343 392.132 851.989 393.613 846.538 393.576C837.317 393.576 829.951 390.786 824.439 385.206C818.911 379.628 816.15 371.867 816.154 361.922C816.154 352.218 818.975 344.516 824.617 338.817C830.252 333.118 837.377 330.267 845.99 330.265C858.605 330.259 867.581 335.169 872.919 344.997Z" fill="#6C63FF"/>
<path opacity="0.1" d="M753.417 510.336C753.417 559.073 685.483 543.998 602.304 543.998C519.125 543.998 452.2 559.073 452.2 510.336C452.2 461.598 520.125 450.998 603.304 450.998C686.483 450.998 753.417 461.598 753.417 510.336Z" fill="black"/>
<path d="M753.417 498.336C753.417 547.073 685.483 531.998 602.304 531.998C519.125 531.998 452.2 547.073 452.2 498.336C452.2 449.598 520.125 438.998 603.304 438.998C686.483 438.998 753.417 449.598 753.417 498.336Z" fill="#3F3D56"/>
<path d="M739.542 410.842L742.975 425.006C743.013 425.163 743.007 425.329 742.958 425.484L727.382 474.157C727.321 474.35 727.195 474.515 727.026 474.627C726.857 474.738 726.655 474.788 726.453 474.768C726.252 474.748 726.063 474.659 725.919 474.517C725.775 474.375 725.684 474.188 725.661 473.987L723.506 455.026C723.492 454.9 723.505 454.772 723.544 454.652L737.841 410.776C737.9 410.593 738.018 410.435 738.176 410.324C738.334 410.214 738.524 410.159 738.716 410.166C738.908 410.174 739.093 410.244 739.242 410.366C739.391 410.488 739.496 410.655 739.542 410.842V410.842Z" fill="#2F2E41"/>
<path d="M738.278 412.038L741.449 424.19L727.711 468.572L724.541 454.835L738.278 412.038Z" fill="#F2F2F2"/>
<path d="M669.064 478.082C669.592 479.668 724.013 477.554 724.541 477.026C725.002 476.364 725.392 475.656 725.704 474.912C726.2 473.856 726.655 472.799 726.655 472.799L724.541 455.691L670.649 453.778C670.649 453.778 669.302 468.276 669.027 474.912C668.933 475.968 668.946 477.03 669.064 478.082V478.082Z" fill="#2F2E41"/>
<path opacity="0.1" d="M717.673 458.005L718.729 472.799H694.953V458.005H717.673Z" fill="black"/>
<path opacity="0.1" d="M687.028 462.76L687.17 462.732L686.5 469.1H673.291V462.76H687.028Z" fill="black"/>
<path opacity="0.1" d="M669.064 478.082C669.592 479.668 724.013 477.554 724.541 477.026C725.002 476.364 725.392 475.656 725.704 474.912H669.027C668.933 475.968 668.946 477.03 669.064 478.082V478.082Z" fill="black"/>
<path d="M585.055 422.605H599.849L636.306 408.34C636.306 408.34 662.195 397.772 660.082 417.85C657.968 437.927 654.27 464.874 654.27 464.874C654.27 464.874 642.646 459.59 636.306 461.175C629.966 462.76 634.193 428.945 634.193 428.945C634.193 428.945 582.414 453.778 577.659 450.608C572.903 447.438 571.847 425.247 571.847 425.247L585.055 422.605Z" fill="#2F2E41"/>
<path opacity="0.1" d="M585.055 422.605H599.849L636.306 408.34C636.306 408.34 662.195 397.772 660.082 417.85C657.968 437.927 654.27 464.874 654.27 464.874C654.27 464.874 642.646 459.59 636.306 461.175C629.966 462.76 634.193 428.945 634.193 428.945C634.193 428.945 582.414 453.778 577.659 450.608C572.903 447.438 571.847 425.247 571.847 425.247L585.055 422.605Z" fill="black"/>
<path d="M608.363 376.276L626.267 401.999L668.007 436.871C668.007 436.871 706.577 445.853 701.294 452.193C696.01 458.533 663.78 445.853 663.78 445.853C663.78 445.853 615.7 410.981 614.115 408.34C612.53 405.698 595.094 380.865 595.094 380.865L608.363 376.276Z" fill="#A0616A"/>
<path opacity="0.1" d="M608.363 376.276L626.267 401.999L668.007 436.871C668.007 436.871 706.577 445.853 701.294 452.193C696.01 458.533 663.78 445.853 663.78 445.853C663.78 445.853 615.7 410.981 614.115 408.34C612.53 405.698 595.094 380.865 595.094 380.865L608.363 376.276Z" fill="black"/>
<path d="M605.661 348.107C618.792 348.107 629.437 337.462 629.437 324.331C629.437 311.2 618.792 300.555 605.661 300.555C592.53 300.555 581.885 311.2 581.885 324.331C581.885 337.462 592.53 348.107 605.661 348.107Z" fill="#A0616A"/>
<path d="M604.076 345.465C604.076 345.465 596.151 359.203 594.566 366.6C592.981 373.997 570.79 351.806 570.79 351.806L567.884 344.144C567.884 344.144 588.754 334.37 587.169 326.445C585.584 318.519 604.076 345.465 604.076 345.465Z" fill="#A0616A"/>
<path d="M597.736 355.504L609.36 378.223C609.36 378.223 606.718 389.319 602.491 390.376C598.264 391.432 580.3 376.638 580.3 376.638L597.736 355.504Z" fill="#D0CDE1"/>
<path d="M608.303 386.677L629.966 415.208L681.744 453.778C681.744 453.778 719.258 461.704 710.804 467.515C702.35 473.327 678.046 462.232 678.046 462.232C678.046 462.232 625.739 434.229 614.643 422.605C603.548 410.981 582.942 391.432 582.942 391.432L608.303 386.677Z" fill="#A0616A"/>
<path d="M579.244 431.059L585.584 441.098L623.423 429.193C627.522 427.868 631.86 427.449 636.137 427.965C640.414 428.481 644.528 429.92 648.194 432.182C654.798 436.342 659.025 442.947 649.515 452.721C630.494 472.271 617.813 461.703 617.813 461.703C617.813 461.703 553.882 491.82 543.315 477.026C532.748 462.232 532.22 454.835 532.22 454.835C532.22 454.835 572.903 429.474 579.244 431.059Z" fill="#2F2E41"/>
<path d="M658.497 465.93C658.497 465.93 675.404 477.026 655.327 482.309C635.249 487.593 620.455 480.196 620.455 480.196C620.455 480.196 603.019 480.196 603.019 471.214C603.019 462.232 608.831 461.175 608.831 461.175L626.795 463.817C626.795 463.817 648.458 458.005 658.497 465.93Z" fill="#D0CDE1"/>
<path d="M625.166 318.35C626.728 319.191 628.407 319.793 630.148 320.135C631.023 320.291 631.924 320.188 632.741 319.838C633.557 319.488 634.254 318.907 634.744 318.166C635.132 317.287 635.311 316.33 635.266 315.371C635.329 312.469 635.119 309.333 633.281 307.088C632.111 305.659 630.403 304.758 629.191 303.364C628.377 302.319 627.684 301.186 627.124 299.986C624.769 295.562 621.281 291.31 616.434 290.035C614.385 289.594 612.286 289.434 610.194 289.558L597.988 289.73C596.011 289.666 594.034 289.879 592.116 290.362C588.187 291.55 585.326 294.854 582.706 298.013C580.673 300.317 578.865 302.811 577.31 305.461C575.201 309.394 574.134 313.803 574.212 318.265C574.196 319.41 574.344 320.551 574.651 321.653C575.011 322.664 575.456 323.643 575.983 324.578C578.272 329.074 579.631 334.69 577.053 339.027C581.531 337.198 585.962 334.8 588.916 330.969C590.238 329.255 591.274 327.249 593.035 325.992C594.796 324.734 597.666 324.625 598.796 326.471C599.184 327.217 599.384 328.048 599.378 328.889C599.343 330.279 599.569 331.664 600.046 332.97C600.302 333.617 600.77 334.157 601.374 334.502C601.978 334.846 602.681 334.975 603.368 334.866C605.669 334.218 605.448 330.687 607.22 329.084C608.566 327.866 610.642 328.098 612.37 327.546C613.361 327.169 614.263 326.59 615.018 325.847C615.773 325.103 616.365 324.21 616.757 323.225C617.412 321.757 617.402 317.915 618.641 317.12C620.194 316.123 623.726 317.708 625.166 318.35Z" fill="#2F2E41"/>
<path d="M565.996 341.638C567.066 341.353 568.192 341.356 569.26 341.646C572.652 342.557 580.255 344.967 581.885 348.635C583.999 353.391 591.396 360.788 591.396 360.788C591.396 360.788 601.434 370.826 599.321 377.695C597.208 384.564 589.282 392.489 589.282 392.489C589.282 392.489 591.396 425.247 580.829 433.701C570.261 442.154 566.035 436.343 566.035 444.268C566.035 452.193 533.277 477.026 526.936 461.704C526.936 461.704 530.106 433.172 529.05 423.134C528.008 413.24 529.533 351.51 565.996 341.638Z" fill="#D0CDE1"/>
<path d="M582.942 354.976C582.942 354.976 615.172 378.752 609.36 388.79C609.36 388.79 589.811 398.301 585.584 397.772C581.357 397.244 564.978 378.752 560.751 377.167C556.524 375.582 554.411 347.05 582.942 354.976Z" fill="#D0CDE1"/>
<path d="M493.811 376.281C488.798 377.974 484.257 381.934 483.23 387.124C482.754 389.53 483.046 392.031 482.646 394.451C481.717 400.062 477.312 404.348 473.249 408.329C469.187 412.309 464.991 416.935 464.694 422.615C464.37 428.835 468.881 434.662 468.1 440.841C467.193 448.02 459.611 452.672 457.736 459.661C456.485 464.328 458.018 469.356 460.542 473.476C465.35 481.329 473.57 486.659 482.322 489.517C491.075 492.375 500.398 492.976 509.605 493.073C520.815 493.19 532.988 492.228 541.411 484.829C546.222 480.565 549.244 474.639 549.87 468.241C550.67 459.67 547.093 450.814 549.56 442.567C551.113 437.377 555.007 432.637 554.426 427.251C553.858 421.985 549.258 418.252 546.103 413.998C543.157 410.026 541.369 405.335 539.617 400.71L533.622 384.886C532.444 381.776 531.15 378.504 528.523 376.462C523.607 372.64 515.701 373.391 509.952 374.179C504.619 374.911 498.94 374.549 493.811 376.281Z" fill="#2F2E41"/>
<path d="M495.688 422.376C495.688 422.376 498.346 431.013 478.414 440.979C458.483 450.944 480.408 461.574 480.408 461.574L503.661 466.889C503.661 466.889 527.578 463.567 530.235 459.581C532.893 455.595 537.543 442.307 536.215 440.314C535.22 438.895 534.109 437.562 532.893 436.328C532.893 436.328 516.948 433.67 517.612 426.362C518.277 419.054 495.688 422.376 495.688 422.376Z" fill="#FFB9B9"/>
<path opacity="0.1" d="M495.688 422.376C495.688 422.376 498.346 431.013 478.414 440.979C458.483 450.944 480.408 461.574 480.408 461.574L503.661 466.889C503.661 466.889 527.578 463.567 530.235 459.581C532.893 455.595 537.543 442.307 536.215 440.314C535.22 438.895 534.109 437.562 532.893 436.328C532.893 436.328 516.948 433.67 517.612 426.362C518.277 419.054 495.688 422.376 495.688 422.376Z" fill="black"/>
<path d="M508.643 435.996C520.385 435.996 529.903 426.477 529.903 414.736C529.903 402.994 520.385 393.476 508.643 393.476C496.902 393.476 487.383 402.994 487.383 414.736C487.383 426.477 496.902 435.996 508.643 435.996Z" fill="#FFB9B9"/>
<path d="M506.318 459.581C506.318 459.581 480.714 457.708 480.229 440.042C480.229 440.042 471.106 438.985 468.449 441.643C465.791 444.3 457.155 446.293 457.155 452.937C457.155 459.581 471.771 479.512 471.771 479.512C471.771 479.512 479.743 506.087 476.421 510.737C473.099 515.388 472.435 527.347 472.435 527.347C472.435 527.347 505.654 524.689 510.969 527.347C516.284 530.004 537.543 530.004 538.872 527.347C540.201 524.689 537.543 491.471 537.543 491.471C537.543 491.471 543.523 483.498 542.194 474.197L558.139 455.595C558.139 455.595 552.16 437.657 542.858 437.657C542.858 437.657 530.235 434.335 529.903 435.996C529.571 437.657 536.215 456.259 506.318 459.581Z" fill="#FF6584"/>
<path d="M446.525 518.045C446.525 518.045 452.504 527.347 467.785 529.34C483.065 531.333 485.723 526.018 484.394 524.689C483.065 523.36 467.12 517.381 467.12 517.381L457.819 510.073L446.525 518.045Z" fill="#FFB9B9"/>
<path d="M555.481 510.073L538.208 520.039C538.208 520.039 515.619 518.71 524.256 525.354C532.893 531.997 548.838 529.34 548.838 529.34L564.118 522.032L555.481 510.073Z" fill="#FFB9B9"/>
<path d="M469.113 527.347C469.113 527.347 453.168 566.544 472.435 572.524C491.702 578.503 544.851 577.174 556.81 569.202C568.769 561.23 572.091 550.6 570.098 547.278C568.104 543.956 554.817 534.655 545.516 533.99C536.215 533.326 469.113 527.347 469.113 527.347Z" fill="#2F2E41"/>
<path opacity="0.05" d="M469.113 527.347C469.113 527.347 453.168 566.544 472.435 572.524C491.702 578.503 544.851 577.174 556.81 569.202C568.769 561.23 572.091 550.6 570.098 547.278C568.104 543.956 554.817 534.655 545.516 533.99C536.215 533.326 469.113 527.347 469.113 527.347Z" fill="black"/>
<path d="M544.378 529.782C544.378 529.782 600.659 509.409 599.994 533.99C599.33 558.572 564.118 565.216 564.118 565.216L553.488 566.545L495.024 568.538C495.024 568.538 497.017 557.908 492.366 556.579C492.366 556.579 507.647 552.593 508.311 551.928C508.975 551.264 546.845 537.977 549.502 537.312C552.159 536.648 560.132 531.333 566.111 531.997C566.111 531.997 572.755 526.682 580.063 528.011L559.468 529.34L544.378 529.782Z" fill="#2F2E41"/>
<path opacity="0.1" d="M544.378 529.782C544.378 529.782 600.659 509.409 599.994 533.99C599.33 558.572 564.118 565.216 564.118 565.216L553.488 566.545L495.024 568.538C495.024 568.538 497.017 557.908 492.366 556.579C492.366 556.579 507.647 552.593 508.311 551.928C508.975 551.264 546.845 537.977 549.502 537.312C552.159 536.648 560.132 531.333 566.111 531.997C566.111 531.997 572.755 526.682 580.063 528.011L559.468 529.34L544.378 529.782Z" fill="black"/>
<path d="M534.434 533.081L541.53 549.271L584.714 533.99L588.036 525.354L576.741 523.36L554.035 527.347L544.187 530.004L534.434 533.081Z" fill="#2F2E41"/>
<path opacity="0.1" d="M534.434 533.081L541.53 549.271L584.714 533.99L588.036 525.354L576.741 523.36L554.035 527.347L544.187 530.004L534.434 533.081Z" fill="black"/>
<path d="M442.538 552.593C442.538 552.593 455.161 568.538 469.778 572.524C484.394 576.51 492.366 571.195 492.366 571.195L487.716 552.593L485.723 540.634L477.086 534.655L459.812 526.682L439.217 520.039C439.217 520.039 430.58 518.71 430.58 520.039C430.58 521.367 438.552 541.298 438.552 541.298L442.538 552.593Z" fill="#2F2E41"/>
<path d="M457.819 561.23C457.819 561.23 460.476 580.496 463.798 581.825C467.12 583.154 477.086 580.496 479.743 579.168C482.401 577.839 491.434 571.708 491.434 571.708C491.434 571.708 459.812 559.901 457.819 561.23Z" fill="#F2F2F2"/>
<path d="M518.277 563.223L530.9 565.216L529.571 580.496L511.964 576.22L518.277 563.223Z" fill="#FFB9B9"/>
<path d="M526.186 567.475C526.186 567.475 520.27 574.517 526.249 578.503L530.235 581.825C530.235 581.825 543.523 584.483 544.851 585.811C546.18 587.14 551.495 583.818 551.495 583.818C551.495 583.818 552.16 563.887 551.495 562.558C550.831 561.23 542.858 559.901 542.194 561.23C541.53 562.558 533.557 564.551 528.907 563.223L526.186 567.475Z" fill="#F2F2F2"/>
<path d="M473.099 531.997C473.099 531.997 426.594 504.758 419.285 514.724C411.977 524.689 404.005 538.641 425.265 549.271C446.525 559.901 512.962 581.825 512.962 581.825C512.962 581.825 522.927 566.545 522.927 562.558C522.927 562.558 487.716 546.613 481.736 545.285C475.757 543.956 451.84 528.675 448.518 527.347C445.196 526.018 440.545 522.032 440.545 522.032L473.099 531.997Z" fill="#2F2E41"/>
<path d="M459.812 449.615L457.155 451.608C457.155 451.608 451.175 466.889 450.511 475.526C449.846 484.163 441.874 510.737 442.538 514.059C443.203 517.381 443.867 520.039 447.853 523.36C447.853 523.36 453.168 511.402 462.47 513.395L473.764 472.204L459.812 449.615Z" fill="#FF6584"/>
<path d="M552.824 449.615L558.139 455.595C558.139 455.595 561.461 463.567 561.461 465.56C561.461 467.553 568.104 496.786 568.769 498.114C569.433 499.443 572.091 516.052 568.769 520.039C565.447 524.025 559.468 526.682 559.468 526.682C559.468 526.682 563.454 512.731 550.831 512.066L552.16 506.751L540.201 466.889L552.824 449.615Z" fill="#FF6584"/>
<path d="M461.141 495.356V530.351C461.141 532.561 462.01 534.682 463.561 536.256C465.112 537.83 467.22 538.731 469.43 538.764L542.615 539.848C544.811 539.881 546.934 539.053 548.528 537.541C550.122 536.029 551.062 533.954 551.147 531.759L552.493 496.76C552.536 495.639 552.354 494.521 551.959 493.471C551.563 492.421 550.962 491.461 550.19 490.647C549.418 489.833 548.491 489.181 547.464 488.731C546.436 488.281 545.329 488.04 544.207 488.024L469.676 486.944C468.561 486.928 467.454 487.133 466.419 487.549C465.384 487.964 464.443 488.581 463.648 489.364C462.854 490.147 462.223 491.08 461.793 492.109C461.363 493.137 461.141 494.241 461.141 495.356V495.356Z" fill="#3F3D56"/>
<path d="M509.89 414.054C522.529 414.054 532.774 408.537 532.774 401.732C532.774 394.927 522.529 389.41 509.89 389.41C497.252 389.41 487.006 394.927 487.006 401.732C487.006 408.537 497.252 414.054 509.89 414.054Z" fill="#2F2E41"/>
<path d="M505.986 519.042C508.921 519.042 511.301 516.662 511.301 513.727C511.301 510.792 508.921 508.412 505.986 508.412C503.05 508.412 500.671 510.792 500.671 513.727C500.671 516.662 503.05 519.042 505.986 519.042Z" fill="#F2F2F2"/>
</g>
<defs>
<clipPath id="clip0_2_2">
<rect width="1028" height="598.997" fill="white"/>
</clipPath>
</defs>
</svg>
