<svg id="visual" viewBox="0 0 960 300" width="960" height="300" xmlns="http://www.w3.org/2000/svg" xmlns:xlink="http://www.w3.org/1999/xlink" version="1.1"><rect x="0" y="0" width="960" height="300" fill="#fff"></rect><path d="M0 87L14.5 87.3C29 87.7 58 88.3 87.2 78.3C116.3 68.3 145.7 47.7 174.8 45.8C204 44 233 61 262 72.3C291 83.7 320 89.3 349 83.5C378 77.7 407 60.3 436.2 63.8C465.3 67.3 494.7 91.7 523.8 105C553 118.3 582 120.7 611 108.5C640 96.3 669 69.7 698 54.7C727 39.7 756 36.3 785.2 35.3C814.3 34.3 843.7 35.7 872.8 51.5C902 67.3 931 97.7 945.5 112.8L960 128L960 0L945.5 0C931 0 902 0 872.8 0C843.7 0 814.3 0 785.2 0C756 0 727 0 698 0C669 0 640 0 611 0C582 0 553 0 523.8 0C494.7 0 465.3 0 436.2 0C407 0 378 0 349 0C320 0 291 0 262 0C233 0 204 0 174.8 0C145.7 0 116.3 0 87.2 0C58 0 29 0 14.5 0L0 0Z" fill="#FFC12C" stroke-linecap="round" stroke-linejoin="miter"></path></svg>