<svg id="visual" viewBox="0 0 960 300" width="960" height="300" xmlns="http://www.w3.org/2000/svg" xmlns:xlink="http://www.w3.org/1999/xlink" version="1.1"><rect x="0" y="0" width="960" height="300" fill="#fff"></rect><path d="M0 178L14.5 188C29 198 58 218 87.2 230C116.3 242 145.7 246 174.8 236.5C204 227 233 204 262 188C291 172 320 163 349 178C378 193 407 232 436.2 248.5C465.3 265 494.7 259 523.8 258.8C553 258.7 582 264.3 611 255.2C640 246 669 222 698 216.2C727 210.3 756 222.7 785.2 232.2C814.3 241.7 843.7 248.3 872.8 251C902 253.7 931 252.3 945.5 251.7L960 251L960 301L945.5 301C931 301 902 301 872.8 301C843.7 301 814.3 301 785.2 301C756 301 727 301 698 301C669 301 640 301 611 301C582 301 553 301 523.8 301C494.7 301 465.3 301 436.2 301C407 301 378 301 349 301C320 301 291 301 262 301C233 301 204 301 174.8 301C145.7 301 116.3 301 87.2 301C58 301 29 301 14.5 301L0 301Z" fill="#FFC12C" stroke-linecap="round" stroke-linejoin="miter"></path></svg>